<?xml version="1.0" encoding="utf-8"?>
<!-- Generator: Adobe Illustrator 17.0.2, SVG Export Plug-In . SVG Version: 6.00 Build 0)  -->
<!DOCTYPE svg PUBLIC "-//W3C//DTD SVG 1.1//EN" "http://www.w3.org/Graphics/SVG/1.1/DTD/svg11.dtd">
<svg version="1.1" id="Layer_1" xmlns="http://www.w3.org/2000/svg" xmlns:xlink="http://www.w3.org/1999/xlink" x="0px" y="0px"
	 width="32px" height="48px" viewBox="507.288 822.731 32 48" enable-background="new 507.288 822.731 32 48" xml:space="preserve">
<title>marker</title>
<g>
	<title>Layer 1</title>
	<path id="svg_2" fill="#723ED6" d="M523.215,866.659c-0.857-4.495-2.368-8.235-4.199-11.701c-1.358-2.571-2.931-4.945-4.386-7.438
		c-0.486-0.832-0.905-1.712-1.372-2.576c-0.933-1.727-1.69-3.73-1.642-6.328c0.047-2.538,0.734-4.574,1.725-6.239
		c1.63-2.738,4.36-4.983,8.023-5.573c2.995-0.482,5.803,0.333,7.795,1.576c1.627,1.016,2.887,2.374,3.845,3.974
		c1,1.67,1.688,3.643,1.746,6.217c0.03,1.319-0.173,2.54-0.457,3.553c-0.288,1.025-0.752,1.882-1.164,2.798
		c-0.805,1.787-1.814,3.424-2.827,5.062C527.286,854.863,524.455,859.84,523.215,866.659z"/>
	<ellipse id="svg_4" fill="#F29D36" cx="523.316" cy="837.855" rx="4.053" ry="4.33"/>
</g>
</svg>
