<?xml version="1.0" encoding="utf-8"?>
<!-- Generator: Adobe Illustrator 17.0.2, SVG Export Plug-In . SVG Version: 6.00 Build 0)  -->
<!DOCTYPE svg PUBLIC "-//W3C//DTD SVG 1.1//EN" "http://www.w3.org/Graphics/SVG/1.1/DTD/svg11.dtd">
<svg version="1.1" id="Layer_1" xmlns="http://www.w3.org/2000/svg" xmlns:xlink="http://www.w3.org/1999/xlink" x="0px" y="0px"
	 width="1046.576px" height="1693.462px" viewBox="0 0 1046.576 1693.462" enable-background="new 0 0 1046.576 1693.462"
	 xml:space="preserve">
<title>marker</title>
<g>
	<title>Layer 1</title>
	<path id="svg_2" fill="#F76C60" d="M543.181,1770.11c-38.766-190.301-107.116-348.665-189.903-495.44
		c-61.407-108.872-132.544-209.363-198.364-314.938c-21.972-35.244-40.934-72.477-62.047-109.054
		c-42.216-73.137-76.444-157.935-74.269-267.932c2.125-107.473,33.208-193.684,78.03-264.172
		c73.719-115.935,197.201-210.989,362.884-235.969c135.466-20.424,262.475,14.082,352.543,66.748
		c73.6,43.038,130.596,100.527,173.92,168.28c45.22,70.716,76.359,154.26,78.971,263.232c1.337,55.83-7.805,107.532-20.684,150.418
		c-13.034,43.409-33.996,79.695-52.646,118.454c-36.406,75.659-82.049,144.982-127.855,214.346
		C727.324,1270.689,599.265,1481.393,543.181,1770.11z"/>
	<circle id="svg_4" fill="#723ED6" cx="547.787" cy="550.528" r="183.332"/>
</g>
</svg>
